<svg width="40" height="40" viewBox="0 0 40 40" fill="none" xmlns="http://www.w3.org/2000/svg">
<circle cx="20" cy="20" r="20" fill="#BE0027"/>
<path d="M19.11 31.0002C18.9941 31 18.879 30.9797 18.77 30.9402C18.3373 30.7818 18.0689 30.3481 18.12 29.8902L18.89 22.8002H13C12.6298 22.8007 12.2896 22.5967 12.1157 22.2699C11.9418 21.9431 11.9627 21.5469 12.17 21.2402L20.06 9.44019C20.3168 9.06025 20.799 8.90362 21.23 9.06019C21.6435 9.2137 21.9076 9.61998 21.88 10.0602L21.11 17.2002H27C27.3703 17.1996 27.7105 17.4036 27.8844 17.7305C28.0583 18.0573 28.0374 18.4535 27.83 18.7602L19.94 30.5602C19.7538 30.8358 19.4427 31.0007 19.11 31.0002Z" fill="white"/>
</svg>
