<svg width="171" height="59" viewBox="0 0 171 59" fill="none" xmlns="http://www.w3.org/2000/svg">
<g clip-path="url(#clip0_3724_108838)">
<mask id="mask0_3724_108838" style="mask-type:luminance" maskUnits="userSpaceOnUse" x="-9" y="0" width="171" height="59">
<path d="M-9 0H162V59H-9V0Z" fill="white"/>
</mask>
<g mask="url(#mask0_3724_108838)">
<path d="M4.91202 29.0893C6.73313 29.0893 8.09896 28.2264 8.09896 26.2014C8.09896 24.2996 6.59304 23.5776 4.91202 23.5776H0.464316V29.0893H4.91202ZM-0.306152 22.9084H4.91202C7.10085 22.9084 8.86943 23.7185 8.86943 26.1485C8.86943 27.839 7.85381 29.0893 6.1903 29.371V29.4063C8.04643 29.6176 8.5017 30.7974 8.62428 32.1005C8.74685 33.4036 8.53672 34.8123 9.04453 35.4814H8.18651C7.71372 34.619 7.99389 33.1746 7.85381 31.9596C7.69621 30.7446 7.10085 29.7584 4.91202 29.7584H0.464316V35.4814H-0.306152V22.9084Z" fill="white"/>
<path d="M11.4961 29.283V35.4814H10.7256V22.9084H11.4961V28.6138H19.4809V22.9084H20.2514V35.4814H19.4809V29.283H11.4961Z" fill="white"/>
<path d="M30.9502 34.8123V35.4814H22.4575V22.9084H30.8626V23.5776H23.228V28.6138H30.4074V29.283H23.228V34.8123H30.9502Z" fill="white"/>
<path d="M32.2632 22.9084H33.3664L38.2518 34.619H38.2868L43.1198 22.9084H44.223V35.4814H43.4525V23.8593H43.4175L38.6546 35.4814H37.8841L33.0687 23.8593H33.0337V35.4814H32.2632V22.9084Z" fill="white"/>
<path d="M53.2757 30.7798L50.5966 23.6656H50.5615L47.7773 30.7798H53.2757ZM50.9818 22.9084L55.9198 35.4814H55.0968L53.5208 31.4489H47.5322L45.9387 35.4814H45.1157L50.1413 22.9084H50.9818Z" fill="white"/>
</g>
<path d="M63.3076 15.456V43.5282C63.3076 46.2168 65.4755 48.3965 68.1504 48.3965H96.0645C98.7393 48.3965 100.861 46.2099 100.861 43.5213L100.858 15.5007C100.858 12.8116 98.7449 10.6414 96.0709 10.6414L68.1008 10.6311C65.4264 10.6311 63.3076 12.767 63.3076 15.456Z" fill="url(#paint0_linear_3724_108838)"/>
<mask id="mask1_3724_108838" style="mask-type:luminance" maskUnits="userSpaceOnUse" x="-9" y="0" width="171" height="59">
<path d="M-9 0H162V59H-9V0Z" fill="white"/>
</mask>
<g mask="url(#mask1_3724_108838)">
<path d="M90.5077 33.5556C87.4737 39.1807 86.0467 41.0305 81.9753 44.3771C77.9043 41.0305 75.8731 39.2224 73.0214 33.5019C70.1889 27.8214 70.3875 19.6405 70.3875 19.6405C70.3875 19.6405 74.0703 21.2227 81.3031 21.6801L81.3347 18.0015L78.7623 17.9994L78.7794 16.5279H81.0203L81.0357 14.2872L82.63 14.3001L82.6446 16.9157L84.8936 16.9235L84.8851 18.0084L82.6151 17.9994L82.6411 22.2071C89.8064 21.6848 93.1902 20.2576 93.1902 20.2576C93.1902 20.2576 93.0519 28.8389 90.5077 33.5556ZM96.0663 10.6048H68.1513C65.4773 10.6048 63.3115 12.7338 63.3115 15.4233V43.4954C63.3115 46.1836 65.4794 48.3633 68.1539 48.3633H96.0684C98.7428 48.3633 100.911 46.1836 100.911 43.4954V15.4233C100.911 12.7338 98.7403 10.6048 96.0663 10.6048Z" fill="#DC918C"/>
</g>
<path d="M68.2071 10.6828C65.5331 10.6828 63.3647 12.8633 63.3647 15.5528V43.6245C63.3647 46.3127 65.5241 48.4229 68.1985 48.4229L96.0661 48.4156C98.7401 48.4156 100.908 45.9112 100.908 43.5472L100.917 15.5876C100.917 12.8981 98.7965 10.6828 96.122 10.6828H68.2071ZM79.1124 17.9979V16.8989H81.3221L81.3273 14.65L82.629 14.635L82.9323 14.3636L82.9327 16.6167L82.6448 16.8916L84.8789 16.8946L85.1395 16.6167L85.1339 18.2221H82.9468L82.9425 21.8307L82.6414 22.207C88.6057 21.8355 92.1031 20.6574 93.1905 20.2584C93.3156 20.0196 93.5792 19.484 93.5792 19.484C93.5792 19.484 93.9409 28.3165 91.1089 33.997C88.2568 39.7174 86.0393 41.7597 81.9679 45.1054C81.9679 45.1054 81.9756 44.6725 81.9756 44.3779C78.4922 41.2636 76.2355 39.0393 73.6802 33.997C70.811 28.3354 70.8969 20.3494 70.8969 20.3494C70.8969 20.3494 74.1709 21.7646 81.3328 22.2083L81.3349 17.9778L81.1325 18.2196H78.8834L79.1124 17.9979Z" fill="url(#paint1_linear_3724_108838)"/>
<path d="M68.1836 10.5796C65.5096 10.5796 63.3413 12.7601 63.3413 15.4496V43.5213C63.3413 46.2104 65.5096 48.3896 68.1836 48.3896H96.0986C98.7726 48.3896 100.941 46.2104 100.941 43.5213V15.4496C100.941 12.7601 98.7726 10.5796 96.0986 10.5796H68.1836ZM78.8698 16.6153H81.1108V14.375H82.9041L82.9161 16.6032H85.1331V18.2156H82.9041C82.9041 18.2156 82.9601 21.8173 82.9041 21.8173C90.0587 21.3715 93.4852 19.7841 93.4763 19.7888C93.4763 19.7888 93.6749 27.9698 90.8428 33.6503C87.9907 39.3707 86.0787 41.5169 82.0077 44.8631C77.9366 41.5169 76.0241 39.3707 73.172 33.6503C70.34 27.9698 70.5382 19.7888 70.5382 19.7888C70.5382 19.7888 73.8827 21.3668 81.1108 21.8173C81.0548 21.8173 81.1108 18.2031 81.1108 18.2031L78.8698 18.2276V16.6153Z" fill="url(#paint2_linear_3724_108838)"/>
<path d="M92.4946 28.7783C92.1089 30.4533 91.5691 32.1545 90.8101 33.6762C87.9585 39.3966 86.0464 41.5428 81.9754 44.889C77.9039 41.5428 75.9919 39.3966 73.1402 33.6762C72.3817 32.1558 71.8423 30.4559 71.4562 28.7817C68.5609 28.39 65.8297 27.8381 63.3086 27.1544V43.5477C63.3086 46.2359 65.4769 48.416 68.1514 48.416H96.0659C98.7403 48.416 100.908 46.2359 100.908 43.5477V27.0745C98.3141 27.793 95.4932 28.372 92.4946 28.7783Z" fill="url(#paint3_linear_3724_108838)"/>
<path d="M108.55 22.9084H109.653L114.539 34.619H114.574L119.407 22.9084H120.51V35.4814H119.74V23.8593H119.705L114.942 35.4814H114.171L109.356 23.8593H109.321V35.4814H108.55V22.9084Z" fill="white"/>
<path d="M131.209 34.8123V35.4814H122.716V22.9084H131.121V23.5776H123.487V28.6138H130.666V29.283H123.487V34.8123H131.209Z" fill="white"/>
<path d="M132.522 22.9084H133.486L141.383 34.4425H141.418V22.9084H142.188V35.4814H141.278L133.328 23.8593H133.293V35.4814H132.522V22.9084Z" fill="white"/>
<path d="M151.241 30.7798L148.562 23.6656H148.527L145.743 30.7798H151.241ZM148.947 22.9084L153.885 35.4814H153.062L151.486 31.4489H145.498L143.904 35.4814H143.081L148.107 22.9084H148.947Z" fill="white"/>
</g>
<defs>
<linearGradient id="paint0_linear_3724_108838" x1="82.1416" y1="24.6558" x2="81.8514" y2="48.8004" gradientUnits="userSpaceOnUse">
<stop stop-color="white"/>
<stop offset="1" stop-color="#898E94"/>
</linearGradient>
<linearGradient id="paint1_linear_3724_108838" x1="82.141" y1="48.1781" x2="82.141" y2="10.9998" gradientUnits="userSpaceOnUse">
<stop stop-color="#E698A3"/>
<stop offset="0.207865" stop-color="#B82B2F"/>
<stop offset="0.696629" stop-color="#8B1D1F"/>
<stop offset="1" stop-color="#8B1B1F"/>
</linearGradient>
<linearGradient id="paint2_linear_3724_108838" x1="82.1411" y1="10.3254" x2="82.1411" y2="48.7717" gradientUnits="userSpaceOnUse">
<stop stop-color="#E698A3"/>
<stop offset="0.382022" stop-color="#CF2F37"/>
<stop offset="0.758427" stop-color="#CF2F37"/>
<stop offset="1" stop-color="#8B1B1F"/>
</linearGradient>
<linearGradient id="paint3_linear_3724_108838" x1="82.3002" y1="10.4434" x2="82.0044" y2="48.5019" gradientUnits="userSpaceOnUse">
<stop stop-color="#E698A3"/>
<stop offset="0.382022" stop-color="#A72329"/>
<stop offset="0.758427" stop-color="#CD2E37"/>
<stop offset="1" stop-color="#8B1B1F"/>
</linearGradient>
<clipPath id="clip0_3724_108838">
<rect width="171" height="59" fill="white"/>
</clipPath>
</defs>
</svg>
