<svg width="90" height="329" viewBox="0 0 90 329" fill="none" xmlns="http://www.w3.org/2000/svg">
<path opacity="0.3" d="M88 326.12L88 328.52L2.31999 328.52L2.31999 293.48C2.31999 284.52 4.11999 277.96 7.71999 273.8C11.24 269.64 16.76 267.48 24.28 267.32C30.04 267.16 34.84 268.68 38.68 271.88C42.44 275.08 45 279.68 46.36 285.68L46.6 285.68C47.08 282.08 47.96 279.16 49.24 276.92C50.44 274.68 52.04 272.96 54.04 271.76C56.04 270.56 58.4 269.76 61.12 269.36C63.84 268.96 66.92 268.76 70.36 268.76C71.56 268.76 73.08 268.72 74.92 268.64C76.68 268.56 78.44 268.44 80.2 268.28C81.96 268.12 83.56 267.92 85 267.68C86.44 267.44 87.44 267.12 88 266.72L88 269.36C87.12 269.76 85.96 270.08 84.52 270.32C83 270.56 81.4 270.76 79.72 270.92C78.04 271 76.36 271.08 74.68 271.16C72.92 271.16 71.36 271.16 70 271.16C66.48 271.16 63.36 271.44 60.64 272C57.84 272.48 55.52 273.52 53.68 275.12C51.76 276.72 50.32 279 49.36 281.96C48.32 284.92 47.8 288.88 47.8 293.84L47.8 326.12L88 326.12ZM45.4 326.12L45.4 294.08C45.4 290.88 45 287.84 44.2 284.96C43.4 282 42.12 279.4 40.36 277.16C38.6 274.92 36.4 273.12 33.76 271.76C31.04 270.4 27.8 269.72 24.04 269.72C17.96 269.8 13.24 271.64 9.87999 275.24C6.44 278.84 4.72 284.72 4.72 292.88L4.72 326.12L45.4 326.12ZM42.16 237.601L42.16 203.161C42.16 200.281 41.8 197.561 41.08 195.001C40.28 192.361 39.12 190.041 37.6 188.041C36 186.041 34.04 184.441 31.72 183.241C29.4 182.041 26.72 181.441 23.68 181.441C20.4 181.441 17.6 182.001 15.28 183.121C12.88 184.241 10.92 185.801 9.39999 187.801C7.79999 189.721 6.63999 192.001 5.91999 194.641C5.11999 197.281 4.71999 200.121 4.71999 203.161L4.72 237.601L42.16 237.601ZM2.31999 240.001L2.31999 203.161C2.31999 199.801 2.75999 196.681 3.63999 193.801C4.51999 190.841 5.87999 188.281 7.71999 186.121C9.47999 183.881 11.68 182.161 14.32 180.961C16.96 179.681 20.08 179.041 23.68 179.041C26.24 179.041 28.68 179.521 31 180.481C33.32 181.361 35.36 182.601 37.12 184.201C38.88 185.801 40.32 187.721 41.44 189.961C42.48 192.121 43.08 194.521 43.24 197.161L43.48 197.161C43.56 194.361 44.12 191.721 45.16 189.241C46.12 186.681 47.52 184.481 49.36 182.641C51.12 180.721 53.32 179.201 55.96 178.081C58.52 176.961 61.44 176.401 64.72 176.401C68.56 176.401 71.96 177.121 74.92 178.561C77.8 179.921 80.2 181.841 82.12 184.321C84.04 186.801 85.52 189.801 86.56 193.321C87.52 196.761 88 200.521 88 204.601L88 240.001L2.31999 240.001ZM85.6 237.601L85.6 203.521C85.6 200.001 85.2 196.761 84.4 193.801C83.52 190.761 82.24 188.161 80.56 186.001C78.8 183.761 76.64 182.001 74.08 180.721C71.44 179.441 68.36 178.801 64.84 178.801C61.08 178.801 57.92 179.521 55.36 180.961C52.8 182.321 50.72 184.161 49.12 186.481C47.52 188.721 46.36 191.321 45.64 194.281C44.92 197.161 44.56 200.121 44.56 203.161L44.56 237.601L85.6 237.601ZM4.71999 158.201L2.31999 158.201L2.31998 94.2412L4.71999 94.2412L4.71999 125.081L88 125.081L88 127.481L4.71999 127.481L4.71999 158.201ZM54.4 0.841239C59.6 1.56124 64.4 2.92124 68.8 4.92124C73.12 6.92124 76.84 9.52124 79.96 12.7212C83.08 15.8412 85.52 19.5612 87.28 23.8812C89.04 28.2012 89.92 33.0812 89.92 38.5212C89.92 44.2012 88.84 49.4412 86.68 54.2412C84.44 58.9612 81.4 63.0412 77.56 66.4812C73.64 69.8412 69 72.4812 63.64 74.4012C58.2 76.3212 52.28 77.2812 45.88 77.2812C40.68 77.2812 35.4 76.5612 30.04 75.1212C24.6 73.6012 19.68 71.2412 15.28 68.0412C10.88 64.8412 7.27999 60.6812 4.47998 55.5612C1.67999 50.4412 0.279987 44.2412 0.279986 36.9612C0.279986 31.2812 1.23999 26.3212 3.15998 22.0812C4.99998 17.8412 7.35998 14.3212 10.24 11.5212C13.04 8.64124 16.04 6.48124 19.24 5.04124C22.44 3.60124 25.36 2.84124 28 2.76124L28 5.16124C24.88 5.40124 21.84 6.32124 18.88 7.92124C15.84 9.52125 13.12 11.7212 10.72 14.5212C8.31998 17.2412 6.39998 20.5212 4.95998 24.3612C3.43998 28.1212 2.67998 32.3212 2.67998 36.9612C2.67998 44.0012 4.11999 49.9612 6.99999 54.8412C9.79998 59.6412 13.36 63.5212 17.68 66.4812C21.92 69.4412 26.56 71.6012 31.6 72.9612C36.64 74.2412 41.4 74.8812 45.88 74.8812C51.32 74.8812 56.56 74.0812 61.6 72.4812C66.64 70.8812 71.08 68.5212 74.92 65.4012C78.76 62.2812 81.84 58.4812 84.16 54.0012C86.48 49.4412 87.64 44.2812 87.64 38.5212C87.64 33.4012 86.8 28.8012 85.12 24.7212C83.44 20.6412 81.12 17.1212 78.16 14.1612C75.2 11.2012 71.68 8.80125 67.6 6.96125C63.52 5.12125 59.12 3.88124 54.4 3.24124L54.4 0.841239Z" fill="#828282"/>
</svg>
