<svg width="86" height="349" viewBox="0 0 86 349" fill="none" xmlns="http://www.w3.org/2000/svg">
<path opacity="0.3" d="M0.319991 271.84L0.319991 267.88L86 267.88L86 270.28L3.32 270.28L3.32 270.52L86 306.88L86 309.52L3.32 345.88L3.32 346.12L86 346.12L86 348.52L0.319994 348.52L0.319994 344.56L82.88 308.32L82.88 308.08L0.319991 271.84ZM83.6 236.487L83.6 181.527L86 181.527L86 238.887L0.319989 238.887L0.319987 182.007L2.71999 182.007L2.71999 236.487L40.16 236.487L40.16 185.247L42.56 185.247L42.56 236.487L83.6 236.487ZM0.319986 158.434L0.319986 154.834L83 96.2741L83 96.0341L0.319983 96.0341L0.319983 93.6341L86 93.6341L86 97.2341L3.31999 155.794L3.31999 156.034L86 156.034L86 158.434L0.319986 158.434ZM57.8 58.3816L86 69.7816L86 72.4216L0.319981 37.7416L0.31998 34.6216L86 0.781554L86 3.42156L57.8 14.7016L57.8 58.3816ZM55.4 15.6616L2.71999 36.0616L2.71999 36.3016L55.4 57.4216L55.4 15.6616Z" fill="#828282"/>
</svg>
